<svg xmlns="http://www.w3.org/2000/svg" width="520" height="160" viewBox="0 0 520 160">
  <rect width="520" height="160" fill="white"/>
  <path d="M28 102 C 62 78, 86 128, 116 100 C 144 74, 160 122, 194 96 C 224 74, 236 112, 268 96 C 304 76, 318 118, 354 94 C 392 68, 408 114, 446 92 C 470 78, 486 98, 496 90"
        fill="none" stroke="#111827" stroke-width="4" stroke-linecap="round" stroke-linejoin="round"/>
  <path d="M62 120 C 110 136, 164 138, 214 128 C 268 116, 328 118, 388 128 C 430 136, 468 136, 496 132"
        fill="none" stroke="#111827" stroke-width="2.5" stroke-linecap="round" opacity="0.75"/>
  <text x="28" y="146" font-family="Times New Roman, serif" font-size="14" fill="#334155">
    Authorized Signatory
  </text>
</svg>

